<?xml version="1.0" standalone="no"?>
<!DOCTYPE svg PUBLIC "-//W3C//DTD SVG 20010904//EN"
 "http://www.w3.org/TR/2001/REC-SVG-20010904/DTD/svg10.dtd">
<svg version="1.0" xmlns="http://www.w3.org/2000/svg"
 width="1776.000000pt" height="1776.000000pt" viewBox="0 0 1776.000000 1776.000000"
 preserveAspectRatio="xMidYMid meet">
<metadata>
Created by potrace 1.14, written by Peter Selinger 2001-2017
</metadata>
<g transform="translate(0.000000,1776.000000) scale(0.100000,-0.100000)"
fill="#000000" stroke="none">
<path d="M0 8880 l0 -8880 8880 0 8880 0 0 8880 0 8880 -8880 0 -8880 0 0
-8880z m16000 465 l0 -3135 -7125 0 -7125 0 0 3135 0 3135 7125 0 7125 0 0
-3135z m-13497 -3723 l48 -21 -31 -61 c-17 -33 -34 -60 -39 -60 -5 0 -22 7
-37 15 -39 20 -103 19 -126 -2 -39 -35 -15 -70 65 -97 115 -39 170 -84 186
-155 22 -101 -22 -195 -115 -241 -66 -33 -182 -34 -265 -2 -97 38 -97 38 -54
116 34 60 39 65 54 53 74 -65 191 -65 207 0 9 36 -25 64 -112 93 -44 15 -82
36 -108 60 -35 33 -40 43 -44 93 -6 79 4 122 41 164 51 58 97 74 197 70 59 -2
100 -10 133 -25z m1579 -5 c74 -36 139 -108 167 -183 31 -81 27 -197 -9 -268
-109 -215 -418 -259 -587 -84 -133 137 -120 371 28 490 20 16 62 40 95 54 52
22 71 24 154 22 80 -3 105 -8 152 -31z m2231 5 l48 -21 -31 -61 c-17 -33 -34
-60 -39 -60 -5 0 -22 7 -37 15 -39 20 -103 19 -126 -2 -39 -35 -15 -70 65 -97
115 -39 170 -84 186 -155 22 -101 -22 -195 -115 -241 -66 -33 -182 -34 -265
-2 -97 38 -97 38 -54 116 34 60 39 65 54 53 74 -65 191 -65 207 0 9 36 -25 64
-112 93 -44 15 -82 36 -108 60 -35 33 -40 43 -44 93 -6 79 4 122 41 164 51 58
97 74 197 70 59 -2 100 -10 133 -25z m1235 10 c20 -12 22 -20 22 -107 l0 -94
-37 25 c-46 31 -73 38 -129 31 -51 -5 -106 -43 -130 -88 -20 -39 -20 -128 -1
-166 32 -60 85 -93 151 -93 53 0 93 14 124 42 l22 21 0 -100 0 -100 -47 -14
c-125 -36 -262 0 -349 93 -69 74 -89 125 -89 233 0 80 3 97 30 148 36 72 108
139 178 167 42 16 70 20 142 17 50 -2 100 -9 113 -15z m794 -15 c74 -36 139
-108 167 -183 31 -81 27 -197 -9 -268 -109 -215 -418 -259 -587 -84 -133 137
-120 371 28 490 20 16 62 40 95 54 52 22 71 24 154 22 80 -3 105 -8 152 -31z
m1781 5 l48 -21 -31 -61 c-17 -33 -34 -60 -39 -60 -5 0 -22 7 -37 15 -39 20
-103 19 -126 -2 -39 -35 -15 -70 65 -97 115 -39 170 -84 186 -155 22 -101 -22
-195 -115 -241 -66 -33 -182 -34 -265 -2 -97 38 -97 38 -54 116 34 60 39 65
54 53 74 -65 191 -65 207 0 9 36 -25 64 -112 93 -44 15 -82 36 -108 60 -35 33
-40 43 -44 93 -6 79 4 122 41 164 51 58 97 74 197 70 59 -2 100 -10 133 -25z
m4625 10 c20 -12 22 -20 22 -107 l0 -94 -37 25 c-46 31 -73 38 -129 31 -51 -5
-106 -43 -130 -88 -20 -39 -20 -128 -1 -166 32 -60 85 -93 151 -93 53 0 93 14
124 42 l22 21 0 -100 0 -100 -47 -14 c-125 -36 -262 0 -349 93 -69 74 -89 125
-89 233 0 80 3 97 30 148 36 72 108 139 178 167 42 16 70 20 142 17 50 -2 100
-9 113 -15z m-11525 -21 c71 -34 102 -93 102 -191 0 -87 -24 -140 -79 -178
-34 -23 -119 -42 -193 -42 l-43 0 0 -105 0 -105 -85 0 -85 0 0 326 0 326 168
-4 c150 -3 172 -6 215 -27z m1682 2 c71 -37 105 -96 105 -181 0 -83 -47 -149
-125 -175 -5 -2 31 -57 80 -122 50 -65 94 -124 98 -132 6 -10 -12 -13 -95 -13
l-103 0 -75 118 -75 117 -3 -117 -3 -118 -84 0 -85 0 0 326 0 326 163 -4 c140
-4 168 -7 202 -25z m785 -48 l0 -75 -70 0 -70 0 0 -250 0 -250 -85 0 -85 0 0
250 0 250 -65 0 -65 0 0 75 0 75 220 0 220 0 0 -75z m3429 -111 c80 -101 151
-190 158 -196 11 -8 13 25 13 186 l0 196 80 0 80 0 0 -325 0 -325 -83 0 -82 0
-150 192 -150 192 -3 -192 -2 -192 -85 0 -85 0 0 325 0 325 83 0 82 -1 144
-185z m1521 -44 c5 -240 10 -263 56 -280 55 -21 131 -2 150 37 5 10 11 119 14
243 l5 225 83 3 82 3 0 -224 c0 -255 -9 -303 -66 -367 -50 -55 -109 -75 -219
-74 -132 0 -198 35 -247 127 -22 40 -23 55 -26 290 l-4 248 84 -3 83 -3 5
-225z m858 -27 l2 -253 100 0 100 0 0 -70 0 -70 -185 0 -185 0 0 325 0 326 83
-3 82 -3 3 -252z m792 182 l0 -75 -70 0 -70 0 0 -250 0 -250 -85 0 -85 0 0
250 0 250 -65 0 -65 0 0 75 0 75 220 0 220 0 0 -75z m579 58 c5 -10 59 -148
119 -308 61 -159 113 -298 117 -307 7 -16 -1 -18 -83 -18 l-91 0 -17 55 -18
55 -122 0 -123 0 -17 -55 -18 -55 -88 0 c-48 0 -88 2 -88 5 0 3 55 149 121
325 l122 320 88 0 c74 0 90 -3 98 -17z m790 -169 c80 -101 151 -190 158 -196
11 -8 13 25 13 186 l0 196 80 0 80 0 0 -325 0 -325 -83 0 -82 0 -150 192 -150
192 -3 -192 -2 -192 -85 0 -85 0 0 325 0 325 83 0 82 -1 144 -185z m1555 101
c31 -47 60 -85 65 -85 4 0 33 38 65 85 l56 85 95 0 c52 0 95 -4 95 -8 0 -4
-52 -81 -115 -171 l-115 -164 0 -153 0 -154 -85 0 -85 0 0 158 0 158 -115 164
c-63 89 -115 165 -115 166 0 2 44 4 98 4 l99 0 57 -85z"/>
<path d="M1960 9345 l0 -2925 6915 0 6915 0 0 2925 0 2925 -6915 0 -6915 0 0
-2925z m3610 711 c0 -1081 -4 -1731 -10 -1797 -39 -393 -161 -683 -373 -886
-257 -246 -584 -353 -1077 -353 -487 0 -839 105 -1063 318 -271 258 -437 801
-437 1435 l0 107 455 0 455 0 0 -47 c0 -27 5 -124 10 -218 23 -377 77 -582
180 -686 84 -84 200 -121 375 -121 175 0 291 37 377 123 84 83 120 192 138
406 6 79 10 741 10 1769 l0 1644 480 0 480 0 0 -1694z m1922 743 l3 -951 890
951 890 950 624 1 623 0 -942 -949 c-518 -522 -941 -953 -940 -958 1 -6 1837
-2519 1958 -2681 l24 -32 -622 2 -623 3 -686 971 c-377 534 -697 988 -711
1007 l-26 36 -232 -239 -232 -239 0 -771 0 -770 -475 0 -475 0 0 2310 0 2310
475 0 475 0 2 -951z m6238 929 c364 -61 599 -167 790 -358 127 -127 204 -256
258 -435 41 -134 53 -223 53 -390 -1 -419 -147 -695 -465 -881 -80 -46 -101
-64 -75 -64 22 0 163 -71 231 -116 274 -183 432 -472 457 -842 8 -122 1 -283
-18 -389 -51 -279 -232 -597 -439 -769 -228 -190 -443 -276 -827 -330 -106
-15 -256 -18 -1322 -21 l-1203 -4 0 2311 0 2311 1233 -4 c1061 -3 1245 -6
1327 -19z"/>
<path d="M12100 10440 l0 -510 613 0 c660 0 730 4 872 53 188 64 272 150 311
313 23 97 15 277 -16 357 -70 184 -229 260 -600 286 -80 6 -378 11 -662 11
l-518 0 0 -510z"/>
<path d="M12100 8544 l0 -615 668 4 c628 4 672 5 757 24 109 25 163 46 231 89
157 99 240 264 251 499 9 196 -32 322 -141 431 -95 95 -215 147 -401 174 -41
5 -341 10 -717 10 l-648 0 0 -616z"/>
<path d="M3829 5467 c-128 -67 -119 -266 14 -316 39 -15 111 -14 150 3 67 27
116 118 103 189 -10 52 -46 99 -96 125 -57 29 -115 28 -171 -1z"/>
<path d="M8089 5467 c-128 -67 -119 -266 14 -316 39 -15 111 -14 150 3 67 27
116 118 103 189 -10 52 -46 99 -96 125 -57 29 -115 28 -171 -1z"/>
<path d="M3010 5420 l0 -80 44 0 c61 0 96 29 96 80 0 51 -35 80 -96 80 l-44 0
0 -80z"/>
<path d="M4710 5431 l0 -81 40 0 c30 0 47 7 65 25 50 49 16 118 -62 130 l-43
7 0 -81z"/>
<path d="M12740 5348 c-18 -51 -35 -99 -38 -105 -3 -10 15 -13 72 -13 l76 0
-37 103 c-19 56 -37 103 -38 105 -1 1 -17 -39 -35 -90z"/>
</g>
</svg>
