<svg version="1.1" id="Layer_1" xmlns="http://www.w3.org/2000/svg" xmlns:xlink="http://www.w3.org/1999/xlink" x="0px" y="0px"
	 width="100%" viewBox="0 0 1728 1152" enable-background="new 0 0 1728 1152" xml:space="preserve">
<path fill="#63A8EE" opacity="1.000000" stroke="none" 
	d="
M1237.000000,1153.000000 
	C824.666748,1153.000000 412.833466,1153.000000 1.000166,1153.000000 
	C1.000111,769.000122 1.000111,385.000275 1.000055,1.000320 
	C576.999756,1.000214 1152.999512,1.000214 1728.999512,1.000107 
	C1728.999634,384.999664 1728.999634,768.999329 1728.999756,1152.999512 
	C1565.166626,1153.000000 1401.333374,1153.000000 1237.000000,1153.000000 
M152.000168,640.500000 
	C152.000168,711.235779 152.000168,781.971558 152.000168,852.668091 
	C627.412231,852.668091 1101.955566,852.668091 1576.565674,852.668091 
	C1576.565674,643.655884 1576.565674,434.975769 1576.565674,226.332001 
	C1101.587769,226.332001 627.044373,226.332001 152.000168,226.332001 
	C152.000168,364.275482 152.000168,501.887726 152.000168,640.500000 
M1343.719116,954.798828 
	C1348.242554,960.563599 1352.731567,966.355957 1357.319092,972.069214 
	C1358.209961,973.178711 1359.441406,974.726624 1360.590698,974.794189 
	C1365.664917,975.092163 1370.766357,974.922974 1376.197388,974.922974 
	C1376.197388,953.870728 1376.239990,933.566772 1376.070068,913.264648 
	C1376.061646,912.260254 1374.261230,910.494629 1373.192017,910.411682 
	C1368.924438,910.080566 1364.615967,910.275146 1359.338745,910.275146 
	C1359.338745,923.043091 1359.338745,935.298828 1359.338745,947.554565 
	C1357.063354,946.455444 1355.987183,945.220032 1354.974976,943.934448 
	C1347.042236,933.859375 1339.155029,923.748169 1331.158325,913.724060 
	C1330.081177,912.373901 1328.542725,910.598877 1327.097412,910.479675 
	C1322.192749,910.075073 1317.234009,910.325073 1312.308105,910.325073 
	C1312.308105,932.264282 1312.308105,953.466309 1312.308105,974.708252 
	C1317.855347,974.708252 1322.947388,974.708252 1328.895508,974.708252 
	C1328.895508,962.150330 1328.895508,949.862732 1328.895508,937.575073 
	C1329.275269,937.515564 1329.655029,937.455994 1330.034790,937.396423 
	C1334.447144,943.010620 1338.859497,948.624756 1343.719116,954.798828 
M922.222412,934.500000 
	C922.222412,926.581909 922.222412,918.663818 922.222412,910.251221 
	C918.376953,910.251221 915.407104,910.249390 912.437317,910.251526 
	C905.563232,910.256470 905.556580,910.257324 905.551147,916.901794 
	C905.544128,925.568176 905.568054,934.234558 905.531128,942.900818 
	C905.524597,944.440552 905.286316,945.979370 905.054871,948.692505 
	C903.179871,946.520386 902.086365,945.348267 901.097717,944.093384 
	C893.054016,933.883850 885.056702,923.637451 876.964905,913.466248 
	C875.982056,912.230957 874.579590,910.578613 873.273682,910.484924 
	C868.351685,910.131897 863.389221,910.343201 858.261292,910.343201 
	C858.261292,932.167480 858.261292,953.372986 858.261292,974.756287 
	C863.767578,974.756287 868.867493,974.756287 874.816040,974.756287 
	C874.816040,962.227417 874.816040,949.920105 874.816040,937.612854 
	C876.951843,938.697144 878.016846,939.928772 879.022461,941.207031 
	C887.058594,951.422607 895.045044,961.677795 903.159180,971.830994 
	C904.209167,973.144836 905.839233,974.721558 907.308533,974.840149 
	C912.057007,975.223389 916.855774,974.983032 922.222717,974.983032 
	C922.222717,961.408020 922.222717,948.454041 922.222412,934.500000 
M803.981628,975.662170 
	C810.747803,973.954895 816.805481,970.905640 821.460083,965.630554 
	C830.970398,954.852783 833.007324,942.375732 827.586670,929.372009 
	C821.818604,915.534790 810.346863,909.074646 795.598328,908.770203 
	C780.497986,908.458557 768.777405,914.530212 761.985596,928.478149 
	C756.132446,940.498718 758.427429,955.542053 767.901184,965.647644 
	C777.529175,975.917786 789.744202,978.225281 803.981628,975.662170 
M398.915161,961.345947 
	C412.680725,939.498962 399.413391,909.651428 370.045319,908.707886 
	C354.938843,908.222595 341.987366,915.544983 335.920837,928.528870 
	C330.191986,940.789978 332.669800,956.034119 342.245758,966.136169 
	C356.664642,981.347351 385.785187,980.463501 398.915161,961.345947 
M481.631897,974.994324 
	C481.884644,974.062866 482.662964,972.755981 482.307861,972.258789 
	C479.209961,967.922913 475.905273,963.735046 472.670013,959.497070 
	C470.001343,956.001221 467.343414,952.497192 464.587036,948.873596 
	C475.994385,943.556030 479.606293,937.195312 477.906219,926.403503 
	C476.457184,917.205200 469.813934,911.345093 458.869476,910.546997 
	C451.242462,909.990784 443.543945,910.490417 435.891266,910.178223 
	C431.999054,910.019470 430.726746,911.218445 430.769501,915.219604 
	C430.965302,933.548157 430.847504,951.879883 430.871582,970.210510 
	C430.873474,971.652405 431.099640,973.094055 431.227051,974.600464 
	C436.793304,974.600464 441.996307,974.600464 447.690155,974.600464 
	C447.690155,970.565613 447.690155,966.926819 447.690155,963.288086 
	C447.690155,959.757141 447.690155,956.226257 447.690155,952.695312 
	C448.123871,952.618713 448.557587,952.542175 448.991302,952.465576 
	C450.774780,955.209900 452.526520,957.975586 454.348816,960.693909 
	C457.489960,965.379395 459.709106,971.825195 464.112640,974.201599 
	C468.532837,976.587036 475.148499,974.904297 481.631897,974.994324 
M1048.821655,976.717041 
	C1051.315552,976.683777 1053.827393,976.831299 1056.300537,976.587524 
	C1071.592163,975.080750 1079.431885,966.940613 1079.872314,951.521729 
	C1080.223999,939.208862 1080.027222,926.879944 1080.035156,914.558105 
	C1080.036011,913.289551 1079.772583,912.020874 1079.575439,910.245056 
	C1075.507324,910.245056 1071.694214,910.470459 1067.920288,910.182312 
	C1064.058716,909.887451 1063.130249,911.490540 1063.172729,915.101074 
	C1063.312012,926.920898 1063.297852,938.747925 1063.029907,950.565125 
	C1062.847046,958.628479 1058.218994,962.599915 1050.539795,961.919006 
	C1044.428101,961.377136 1041.099609,957.816711 1040.941406,950.731934 
	C1040.673584,938.748169 1040.845825,926.754639 1040.584961,914.770569 
	C1040.552124,913.259949 1039.142212,910.590393 1038.165649,910.492126 
	C1033.606201,910.033508 1028.974854,910.288757 1023.934998,910.288757 
	C1023.934998,923.956360 1023.729736,936.915222 1023.985779,949.865051 
	C1024.323608,966.949524 1031.090210,974.325073 1048.821655,976.717041 
M1262.167236,963.875366 
	C1266.239746,963.057495 1266.999512,965.913574 1268.192383,968.834717 
	C1269.131470,971.134705 1268.425537,974.981018 1272.651611,974.989929 
	C1277.579468,975.000305 1282.507202,974.992432 1287.953247,974.992432 
	C1287.146973,972.640747 1286.611694,970.921326 1285.972900,969.241333 
	C1280.122681,953.856934 1274.243408,938.483643 1268.394897,923.098694 
	C1263.398438,909.954895 1263.412231,910.054688 1249.326050,910.172363 
	C1246.091431,910.199402 1244.705688,911.400574 1243.614990,914.319397 
	C1236.573120,933.163208 1229.338379,951.934937 1222.192261,970.739868 
	C1221.735840,971.941162 1221.491333,973.222961 1220.999268,975.007629 
	C1224.559692,975.007629 1227.740112,974.646179 1230.806152,975.084534 
	C1236.778320,975.938354 1240.248901,973.906921 1241.070923,967.724792 
	C1241.457275,964.820251 1243.196045,963.663269 1246.264282,963.811157 
	C1251.244751,964.051392 1256.245605,963.874634 1262.167236,963.875366 
M291.663513,953.227600 
	C303.035858,951.549744 309.140350,945.192139 309.896454,934.238647 
	C310.698517,922.619019 305.856537,913.320984 296.076477,911.796692 
	C284.702789,910.024048 273.006134,910.323914 261.267365,909.714844 
	C261.267365,932.190918 261.267365,953.395691 261.267365,975.008850 
	C265.649811,975.008850 269.623871,975.031311 273.597382,974.994385 
	C274.732056,974.983887 275.865173,974.800964 277.696167,974.633118 
	C277.696167,971.066956 277.696136,967.613831 277.696167,964.160645 
	C277.696228,954.177917 277.696472,954.182190 287.810333,953.630432 
	C288.807159,953.576050 289.798859,953.427917 291.663513,953.227600 
M951.559143,930.385864 
	C951.750061,939.034973 956.464294,944.158813 964.322083,946.923767 
	C967.927002,948.192200 971.757690,949.190735 974.920593,951.201111 
	C976.758057,952.369019 978.727783,955.561890 978.351440,957.366943 
	C977.956116,959.263550 975.031433,961.425781 972.846985,961.949646 
	C970.291931,962.562378 967.198303,961.962585 964.602417,961.096863 
	C961.689941,960.125427 959.072754,958.268494 955.806458,956.517761 
	C953.506836,960.798584 951.263306,964.975037 949.057373,969.081421 
	C958.568909,976.676147 972.939514,978.930420 983.388245,974.695190 
	C991.867371,971.258301 996.611877,964.238586 996.621155,954.816650 
	C996.629944,945.936340 992.099854,940.101318 984.028381,936.871826 
	C980.479065,935.451843 976.627136,934.627747 973.341187,932.773499 
	C971.541016,931.757629 969.179810,928.574341 969.649963,927.406555 
	C970.439087,925.446350 973.288635,923.090088 975.268005,923.093140 
	C979.225403,923.099121 983.180603,924.588623 987.875244,925.629272 
	C989.558716,922.356506 991.640869,918.308472 994.424988,912.895935 
	C987.700439,911.397217 981.870178,909.403442 975.915283,908.908081 
	C961.329834,907.694824 953.023193,915.044312 951.559143,930.385864 
M574.417480,973.174683 
	C583.973633,977.347717 593.669250,978.390198 603.472778,974.152649 
	C611.987549,970.472351 615.494080,963.439575 615.591125,954.598633 
	C615.683350,946.186584 611.374817,940.421875 603.742065,937.177490 
	C600.226379,935.683044 596.519287,934.642578 592.983826,933.189941 
	C590.326416,932.098145 587.074219,930.455994 588.610535,927.164185 
	C589.551819,925.147400 592.795593,923.022522 594.991760,923.036926 
	C598.777222,923.061523 602.552063,924.716309 606.823303,925.813293 
	C608.646973,922.233704 610.718750,918.167114 612.858276,913.967407 
	C604.582581,909.384766 596.359497,907.858948 587.718079,909.084900 
	C578.192566,910.436340 571.766235,917.539490 570.783325,927.334656 
	C569.768616,937.446777 573.630310,943.316833 583.748291,947.036255 
	C586.403503,948.012268 589.089111,948.912048 591.711487,949.969177 
	C595.052551,951.315979 598.564514,952.936401 597.621582,957.365845 
	C596.667358,961.847656 592.730530,962.980042 588.998291,962.181824 
	C584.255249,961.167297 579.738464,959.095215 574.421692,957.233154 
	C572.524170,960.766846 570.278320,964.949158 567.872803,969.428955 
	C570.040894,970.721069 571.877197,971.815430 574.417480,973.174683 
M220.818008,924.143066 
	C222.244690,924.902222 223.671371,925.661377 225.431808,926.598083 
	C227.659225,922.205322 229.720322,918.140503 231.855057,913.930481 
	C223.541870,909.401367 215.323273,907.844482 206.680328,909.088623 
	C197.165741,910.458313 190.754242,917.571045 189.779480,927.370789 
	C188.775711,937.462158 192.655792,943.310303 202.778198,947.055420 
	C206.208008,948.324463 209.906433,949.226257 212.898834,951.186340 
	C214.737869,952.390991 216.726074,955.538574 216.357361,957.346924 
	C215.970627,959.243530 212.998505,961.611511 210.884659,961.921570 
	C207.774414,962.377747 204.309952,961.555359 201.210968,960.589294 
	C198.775131,959.829895 196.663849,958.029480 193.881500,956.379028 
	C191.512802,960.787415 189.267914,964.965454 186.906097,969.361023 
	C196.182175,975.714478 205.876068,978.121948 216.582230,976.051697 
	C227.352646,973.968994 233.555374,967.126648 234.531509,956.317749 
	C235.392456,946.784302 230.625824,940.045227 220.194031,936.091248 
	C216.931137,934.854492 213.440353,934.032104 210.459808,932.315247 
	C208.948334,931.444580 207.336700,928.833618 207.596130,927.322998 
	C207.874130,925.704407 210.128967,923.571716 211.824020,923.247559 
	C214.448502,922.745728 217.330032,923.588196 220.818008,924.143066 
M710.407654,927.669312 
	C718.817139,922.698059 726.507874,924.796448 734.223694,931.174744 
	C734.223694,928.076355 734.347046,926.086060 734.198242,924.116455 
	C733.881226,919.920959 734.899536,913.469910 732.702332,912.038208 
	C728.640808,909.391724 722.665894,909.661987 717.476257,908.787292 
	C716.681091,908.653198 715.817810,908.855530 714.994507,908.965942 
	C701.432190,910.786011 691.769836,917.971497 687.112000,930.789734 
	C682.091125,944.606995 685.141968,957.250793 695.695984,967.386902 
	C706.024536,977.306519 718.478821,978.978027 731.822632,974.245911 
	C732.799438,973.899475 734.031067,972.513611 734.068970,971.567932 
	C734.284668,966.187317 734.173523,960.793640 734.173523,955.059448 
	C719.562317,962.295837 711.078857,961.463623 705.374329,952.667847 
	C700.347229,944.916626 702.195862,934.576660 710.407654,927.669312 
M1418.588013,969.933167 
	C1428.660522,977.277832 1439.617310,978.424255 1451.250610,974.504517 
	C1452.257324,974.165344 1453.855591,973.328491 1453.878784,972.676636 
	C1454.085327,966.870544 1453.999268,961.054016 1453.999268,954.728333 
	C1442.211060,962.047791 1433.418213,961.853271 1426.998535,954.714905 
	C1421.336914,948.419373 1421.076904,937.858765 1426.420044,931.213684 
	C1432.635498,923.483643 1441.197388,923.163574 1454.223633,930.578369 
	C1454.223633,925.813293 1453.941772,921.379822 1454.305542,917.000061 
	C1454.645630,912.908203 1453.108276,911.089905 1449.198364,910.010132 
	C1432.985718,905.532776 1416.572021,912.226868 1408.773193,926.790527 
	C1401.116455,941.088989 1404.891724,958.493530 1418.588013,969.933167 
M1480.678223,910.244202 
	C1478.428101,910.244202 1476.178101,910.244202 1472.996460,910.244202 
	C1474.408569,912.471802 1475.212402,913.854614 1476.125610,915.161194 
	C1481.079468,922.249756 1485.805176,929.518433 1491.116455,936.329712 
	C1495.010986,941.324097 1496.751221,946.488403 1496.349487,952.837708 
	C1495.892090,960.069519 1496.243774,967.352478 1496.243774,975.011108 
	C1499.677368,975.011108 1502.316528,975.011169 1504.955811,975.011169 
	C1507.542847,975.011169 1510.130005,975.011108 1513.111328,975.011108 
	C1513.111328,972.408325 1513.335693,970.568848 1513.076416,968.800232 
	C1510.533936,951.458252 1515.415161,936.582275 1527.309937,923.727356 
	C1530.718262,920.044067 1533.206909,915.509766 1536.904785,910.244324 
	C1530.955078,910.244324 1526.356567,910.447998 1521.786011,910.178955 
	C1518.225708,909.969360 1515.903931,911.116699 1514.036987,914.222412 
	C1511.337646,918.712830 1508.197144,922.938293 1504.881226,927.811279 
	C1502.591797,924.517334 1500.404419,922.138977 1499.101318,919.347839 
	C1495.535400,911.710205 1489.864624,908.619019 1480.678223,910.244202 
M1192.324829,940.502808 
	C1192.327881,936.672180 1192.471802,932.834839 1192.291504,929.012878 
	C1192.135620,925.706482 1193.560547,924.538818 1196.722656,924.706299 
	C1199.657471,924.861694 1202.607056,924.739380 1205.700317,924.739380 
	C1205.700317,919.597961 1205.700317,915.207764 1205.700317,910.262329 
	C1191.729248,910.262329 1178.111572,910.210327 1164.496338,910.375183 
	C1163.551270,910.386658 1161.897705,911.950623 1161.819214,912.896301 
	C1161.507446,916.645447 1161.691040,920.435791 1161.691040,924.733459 
	C1165.019287,924.733459 1167.672852,924.936035 1170.283081,924.686157 
	C1174.197998,924.311340 1175.501709,925.788269 1175.437988,929.753601 
	C1175.229614,942.741150 1175.349854,955.734192 1175.373413,968.725098 
	C1175.376953,970.677734 1175.538330,972.630127 1175.632324,974.708008 
	C1181.349609,974.708008 1186.592041,974.708008 1192.323364,974.708008 
	C1192.323364,963.437317 1192.323364,952.469482 1192.324829,940.502808 
M532.324585,944.500610 
	C532.327698,939.337585 532.460815,934.170166 532.287109,929.013123 
	C532.175842,925.708923 533.558716,924.538391 536.721924,924.706116 
	C539.656738,924.861755 542.606262,924.739441 545.700684,924.739441 
	C545.700684,919.598572 545.700684,915.208435 545.700684,910.262268 
	C531.730103,910.262268 518.112549,910.210144 504.497528,910.375000 
	C503.552124,910.386475 501.898132,911.949707 501.819519,912.894958 
	C501.507721,916.644165 501.691223,920.434631 501.691223,924.733459 
	C505.022980,924.733459 507.673950,924.935547 510.281769,924.686218 
	C514.194580,924.311951 515.502808,925.785034 515.437866,929.752441 
	C515.227844,942.573303 515.360840,955.399780 515.361511,968.224060 
	C515.361633,970.336853 515.361511,972.449646 515.361511,974.708618 
	C521.349182,974.708618 526.591797,974.708618 532.323364,974.708618 
	C532.323364,964.772583 532.323364,955.136475 532.324585,944.500610 
M1126.695801,940.499756 
	C1126.695923,934.346497 1126.696167,928.193237 1126.696167,922.039978 
	C1126.696289,909.977356 1126.696411,910.132996 1114.503540,910.154419 
	C1110.676758,910.161133 1109.750000,911.464966 1109.780396,915.079895 
	C1109.935303,933.538391 1109.843140,951.998779 1109.870483,970.458557 
	C1109.872681,971.877258 1110.131592,973.295593 1110.260254,974.603638 
	C1122.632324,974.603638 1134.503906,974.603638 1146.493652,974.603638 
	C1146.493652,969.955444 1146.493652,965.717957 1146.493652,960.850647 
	C1142.721436,960.850647 1139.275757,960.892334 1135.831421,960.842773 
	C1125.495605,960.694031 1126.823730,962.317749 1126.702637,951.976624 
	C1126.661743,948.484741 1126.695679,944.991882 1126.695801,940.499756 
z"/>
<path fill="#FFFFFF" opacity="1.000000" stroke="none" 
	d="
M152.000168,640.000000 
	C152.000168,501.887726 152.000168,364.275482 152.000168,226.332001 
	C627.044373,226.332001 1101.587769,226.332001 1576.565674,226.332001 
	C1576.565674,434.975769 1576.565674,643.655884 1576.565674,852.668091 
	C1101.955566,852.668091 627.412231,852.668091 152.000168,852.668091 
	C152.000168,781.971558 152.000168,711.235779 152.000168,640.000000 
M386.500000,832.000366 
	C776.211365,832.000366 1165.922729,832.000366 1555.675171,832.000366 
	C1555.675171,636.639648 1555.675171,442.076691 1555.675171,247.398453 
	C1094.688843,247.398453 634.027405,247.398453 173.324615,247.398453 
	C173.324615,442.360626 173.324615,636.923584 173.324615,832.000366 
	C244.265732,832.000366 314.882874,832.000366 386.500000,832.000366 
z"/>
<path fill="#FDFEFF" opacity="1.000000" stroke="none" 
	d="
M1343.495483,954.518921 
	C1338.859497,948.624756 1334.447144,943.010620 1330.034790,937.396423 
	C1329.655029,937.455994 1329.275269,937.515564 1328.895508,937.575073 
	C1328.895508,949.862732 1328.895508,962.150330 1328.895508,974.708252 
	C1322.947388,974.708252 1317.855347,974.708252 1312.308105,974.708252 
	C1312.308105,953.466309 1312.308105,932.264282 1312.308105,910.325073 
	C1317.234009,910.325073 1322.192749,910.075073 1327.097412,910.479675 
	C1328.542725,910.598877 1330.081177,912.373901 1331.158325,913.724060 
	C1339.155029,923.748169 1347.042236,933.859375 1354.974976,943.934448 
	C1355.987183,945.220032 1357.063354,946.455444 1359.338745,947.554565 
	C1359.338745,935.298828 1359.338745,923.043091 1359.338745,910.275146 
	C1364.615967,910.275146 1368.924438,910.080566 1373.192017,910.411682 
	C1374.261230,910.494629 1376.061646,912.260254 1376.070068,913.264648 
	C1376.239990,933.566772 1376.197388,953.870728 1376.197388,974.922974 
	C1370.766357,974.922974 1365.664917,975.092163 1360.590698,974.794189 
	C1359.441406,974.726624 1358.209961,973.178711 1357.319092,972.069214 
	C1352.731567,966.355957 1348.242554,960.563599 1343.495483,954.518921 
z"/>
<path fill="#FDFEFF" opacity="1.000000" stroke="none" 
	d="
M922.222534,935.000000 
	C922.222717,948.454041 922.222717,961.408020 922.222717,974.983032 
	C916.855774,974.983032 912.057007,975.223389 907.308533,974.840149 
	C905.839233,974.721558 904.209167,973.144836 903.159180,971.830994 
	C895.045044,961.677795 887.058594,951.422607 879.022461,941.207031 
	C878.016846,939.928772 876.951843,938.697144 874.816040,937.612854 
	C874.816040,949.920105 874.816040,962.227417 874.816040,974.756287 
	C868.867493,974.756287 863.767578,974.756287 858.261292,974.756287 
	C858.261292,953.372986 858.261292,932.167480 858.261292,910.343201 
	C863.389221,910.343201 868.351685,910.131897 873.273682,910.484924 
	C874.579590,910.578613 875.982056,912.230957 876.964905,913.466248 
	C885.056702,923.637451 893.054016,933.883850 901.097717,944.093384 
	C902.086365,945.348267 903.179871,946.520386 905.054871,948.692505 
	C905.286316,945.979370 905.524597,944.440552 905.531128,942.900818 
	C905.568054,934.234558 905.544128,925.568176 905.551147,916.901794 
	C905.556580,910.257324 905.563232,910.256470 912.437317,910.251526 
	C915.407104,910.249390 918.376953,910.251221 922.222412,910.251221 
	C922.222412,918.663818 922.222412,926.581909 922.222534,935.000000 
z"/>
<path fill="#FDFEFF" opacity="1.000000" stroke="none" 
	d="
M803.577759,975.769043 
	C789.744202,978.225281 777.529175,975.917786 767.901184,965.647644 
	C758.427429,955.542053 756.132446,940.498718 761.985596,928.478149 
	C768.777405,914.530212 780.497986,908.458557 795.598328,908.770203 
	C810.346863,909.074646 821.818604,915.534790 827.586670,929.372009 
	C833.007324,942.375732 830.970398,954.852783 821.460083,965.630554 
	C816.805481,970.905640 810.747803,973.954895 803.577759,975.769043 
M795.351624,924.982239 
	C783.581116,925.336304 775.731506,933.352966 776.623840,944.108582 
	C777.505798,954.738892 786.585266,961.618713 797.726929,960.099304 
	C806.128601,958.953552 812.720032,951.460388 812.857178,942.898926 
	C813.004761,933.689880 806.547607,926.753662 795.351624,924.982239 
z"/>
<path fill="#FDFEFF" opacity="1.000000" stroke="none" 
	d="
M398.713165,961.648315 
	C385.785187,980.463501 356.664642,981.347351 342.245758,966.136169 
	C332.669800,956.034119 330.191986,940.789978 335.920837,928.528870 
	C341.987366,915.544983 354.938843,908.222595 370.045319,908.707886 
	C399.413391,909.651428 412.680725,939.498962 398.713165,961.648315 
M386.124359,947.315796 
	C388.464050,936.149353 381.966156,926.473999 371.192657,925.082581 
	C360.389404,923.687439 351.212830,931.125427 350.579834,941.790222 
	C350.079498,950.219299 355.811432,957.950562 363.973145,959.855225 
	C373.617737,962.105896 381.764313,957.740601 386.124359,947.315796 
z"/>
<path fill="#FCFEFF" opacity="1.000000" stroke="none" 
	d="
M481.216919,974.999390 
	C475.148499,974.904297 468.532837,976.587036 464.112640,974.201599 
	C459.709106,971.825195 457.489960,965.379395 454.348816,960.693909 
	C452.526520,957.975586 450.774780,955.209900 448.991302,952.465576 
	C448.557587,952.542175 448.123871,952.618713 447.690155,952.695312 
	C447.690155,956.226257 447.690155,959.757141 447.690155,963.288086 
	C447.690155,966.926819 447.690155,970.565613 447.690155,974.600464 
	C441.996307,974.600464 436.793304,974.600464 431.227051,974.600464 
	C431.099640,973.094055 430.873474,971.652405 430.871582,970.210510 
	C430.847504,951.879883 430.965302,933.548157 430.769501,915.219604 
	C430.726746,911.218445 431.999054,910.019470 435.891266,910.178223 
	C443.543945,910.490417 451.242462,909.990784 458.869476,910.546997 
	C469.813934,911.345093 476.457184,917.205200 477.906219,926.403503 
	C479.606293,937.195312 475.994385,943.556030 464.587036,948.873596 
	C467.343414,952.497192 470.001343,956.001221 472.670013,959.497070 
	C475.905273,963.735046 479.209961,967.922913 482.307861,972.258789 
	C482.662964,972.755981 481.884644,974.062866 481.216919,974.999390 
M458.621185,925.849182 
	C455.336334,925.079041 452.051483,924.308838 448.766632,923.538696 
	C448.407410,926.240845 447.965149,928.935486 447.720001,931.647949 
	C447.571564,933.290649 447.450195,935.032410 447.850769,936.592529 
	C448.097870,937.555115 449.573883,939.089844 450.113159,938.943970 
	C453.319336,938.076965 457.043762,937.512756 459.378845,935.462585 
	C462.059143,933.109314 461.466858,929.405762 458.621185,925.849182 
z"/>
<path fill="#FBFDFF" opacity="1.000000" stroke="none" 
	d="
M1048.374756,976.680908 
	C1031.090210,974.325073 1024.323608,966.949524 1023.985779,949.865051 
	C1023.729736,936.915222 1023.934998,923.956360 1023.934998,910.288757 
	C1028.974854,910.288757 1033.606201,910.033508 1038.165649,910.492126 
	C1039.142212,910.590393 1040.552124,913.259949 1040.584961,914.770569 
	C1040.845825,926.754639 1040.673584,938.748169 1040.941406,950.731934 
	C1041.099609,957.816711 1044.428101,961.377136 1050.539795,961.919006 
	C1058.218994,962.599915 1062.847046,958.628479 1063.029907,950.565125 
	C1063.297852,938.747925 1063.312012,926.920898 1063.172729,915.101074 
	C1063.130249,911.490540 1064.058716,909.887451 1067.920288,910.182312 
	C1071.694214,910.470459 1075.507324,910.245056 1079.575439,910.245056 
	C1079.772583,912.020874 1080.036011,913.289551 1080.035156,914.558105 
	C1080.027222,926.879944 1080.223999,939.208862 1079.872314,951.521729 
	C1079.431885,966.940613 1071.592163,975.080750 1056.300537,976.587524 
	C1053.827393,976.831299 1051.315552,976.683777 1048.374756,976.680908 
z"/>
<path fill="#FCFEFF" opacity="1.000000" stroke="none" 
	d="
M1261.702515,963.874634 
	C1256.245605,963.874634 1251.244751,964.051392 1246.264282,963.811157 
	C1243.196045,963.663269 1241.457275,964.820251 1241.070923,967.724792 
	C1240.248901,973.906921 1236.778320,975.938354 1230.806152,975.084534 
	C1227.740112,974.646179 1224.559692,975.007629 1220.999268,975.007629 
	C1221.491333,973.222961 1221.735840,971.941162 1222.192261,970.739868 
	C1229.338379,951.934937 1236.573120,933.163208 1243.614990,914.319397 
	C1244.705688,911.400574 1246.091431,910.199402 1249.326050,910.172363 
	C1263.412231,910.054688 1263.398438,909.954895 1268.394897,923.098694 
	C1274.243408,938.483643 1280.122681,953.856934 1285.972900,969.241333 
	C1286.611694,970.921326 1287.146973,972.640747 1287.953247,974.992432 
	C1282.507202,974.992432 1277.579468,975.000305 1272.651611,974.989929 
	C1268.425537,974.981018 1269.131470,971.134705 1268.192383,968.834717 
	C1266.999512,965.913574 1266.239746,963.057495 1261.702515,963.874634 
M1257.120605,937.392883 
	C1256.335327,935.217896 1255.550171,933.042908 1254.332397,929.669556 
	C1251.673340,937.342407 1249.397095,943.910950 1247.039795,950.713501 
	C1252.288452,950.713501 1256.713867,950.713501 1261.773926,950.713501 
	C1260.205078,946.220703 1258.790039,942.168213 1257.120605,937.392883 
z"/>
<path fill="#FBFDFF" opacity="1.000000" stroke="none" 
	d="
M291.228210,953.275452 
	C289.798859,953.427917 288.807159,953.576050 287.810333,953.630432 
	C277.696472,954.182190 277.696228,954.177917 277.696167,964.160645 
	C277.696136,967.613831 277.696167,971.066956 277.696167,974.633118 
	C275.865173,974.800964 274.732056,974.983887 273.597382,974.994385 
	C269.623871,975.031311 265.649811,975.008850 261.267365,975.008850 
	C261.267365,953.395691 261.267365,932.190918 261.267365,909.714844 
	C273.006134,910.323914 284.702789,910.024048 296.076477,911.796692 
	C305.856537,913.320984 310.698517,922.619019 309.896454,934.238647 
	C309.140350,945.192139 303.035858,951.549744 291.228210,953.275452 
M277.695068,934.399414 
	C277.806610,936.143677 277.918182,937.887939 278.036682,939.740967 
	C283.181152,940.017822 288.382538,941.105774 290.954681,936.184631 
	C292.168030,933.863159 292.081024,929.679016 290.738251,927.450745 
	C287.941681,922.810181 282.884430,923.819275 277.694214,924.426941 
	C277.694214,927.581238 277.694214,930.511780 277.695068,934.399414 
z"/>
<path fill="#FCFEFF" opacity="1.000000" stroke="none" 
	d="
M951.557739,929.981201 
	C953.023193,915.044312 961.329834,907.694824 975.915283,908.908081 
	C981.870178,909.403442 987.700439,911.397217 994.424988,912.895935 
	C991.640869,918.308472 989.558716,922.356506 987.875244,925.629272 
	C983.180603,924.588623 979.225403,923.099121 975.268005,923.093140 
	C973.288635,923.090088 970.439087,925.446350 969.649963,927.406555 
	C969.179810,928.574341 971.541016,931.757629 973.341187,932.773499 
	C976.627136,934.627747 980.479065,935.451843 984.028381,936.871826 
	C992.099854,940.101318 996.629944,945.936340 996.621155,954.816650 
	C996.611877,964.238586 991.867371,971.258301 983.388245,974.695190 
	C972.939514,978.930420 958.568909,976.676147 949.057373,969.081421 
	C951.263306,964.975037 953.506836,960.798584 955.806458,956.517761 
	C959.072754,958.268494 961.689941,960.125427 964.602417,961.096863 
	C967.198303,961.962585 970.291931,962.562378 972.846985,961.949646 
	C975.031433,961.425781 977.956116,959.263550 978.351440,957.366943 
	C978.727783,955.561890 976.758057,952.369019 974.920593,951.201111 
	C971.757690,949.190735 967.927002,948.192200 964.322083,946.923767 
	C956.464294,944.158813 951.750061,939.034973 951.557739,929.981201 
z"/>
<path fill="#FCFEFF" opacity="1.000000" stroke="none" 
	d="
M574.065430,973.042236 
	C571.877197,971.815430 570.040894,970.721069 567.872803,969.428955 
	C570.278320,964.949158 572.524170,960.766846 574.421692,957.233154 
	C579.738464,959.095215 584.255249,961.167297 588.998291,962.181824 
	C592.730530,962.980042 596.667358,961.847656 597.621582,957.365845 
	C598.564514,952.936401 595.052551,951.315979 591.711487,949.969177 
	C589.089111,948.912048 586.403503,948.012268 583.748291,947.036255 
	C573.630310,943.316833 569.768616,937.446777 570.783325,927.334656 
	C571.766235,917.539490 578.192566,910.436340 587.718079,909.084900 
	C596.359497,907.858948 604.582581,909.384766 612.858276,913.967407 
	C610.718750,918.167114 608.646973,922.233704 606.823303,925.813293 
	C602.552063,924.716309 598.777222,923.061523 594.991760,923.036926 
	C592.795593,923.022522 589.551819,925.147400 588.610535,927.164185 
	C587.074219,930.455994 590.326416,932.098145 592.983826,933.189941 
	C596.519287,934.642578 600.226379,935.683044 603.742065,937.177490 
	C611.374817,940.421875 615.683350,946.186584 615.591125,954.598633 
	C615.494080,963.439575 611.987549,970.472351 603.472778,974.152649 
	C593.669250,978.390198 583.973633,977.347717 574.065430,973.042236 
z"/>
<path fill="#FCFEFF" opacity="1.000000" stroke="none" 
	d="
M220.460297,924.001831 
	C217.330032,923.588196 214.448502,922.745728 211.824020,923.247559 
	C210.128967,923.571716 207.874130,925.704407 207.596130,927.322998 
	C207.336700,928.833618 208.948334,931.444580 210.459808,932.315247 
	C213.440353,934.032104 216.931137,934.854492 220.194031,936.091248 
	C230.625824,940.045227 235.392456,946.784302 234.531509,956.317749 
	C233.555374,967.126648 227.352646,973.968994 216.582230,976.051697 
	C205.876068,978.121948 196.182175,975.714478 186.906097,969.361023 
	C189.267914,964.965454 191.512802,960.787415 193.881500,956.379028 
	C196.663849,958.029480 198.775131,959.829895 201.210968,960.589294 
	C204.309952,961.555359 207.774414,962.377747 210.884659,961.921570 
	C212.998505,961.611511 215.970627,959.243530 216.357361,957.346924 
	C216.726074,955.538574 214.737869,952.390991 212.898834,951.186340 
	C209.906433,949.226257 206.208008,948.324463 202.778198,947.055420 
	C192.655792,943.310303 188.775711,937.462158 189.779480,927.370789 
	C190.754242,917.571045 197.165741,910.458313 206.680328,909.088623 
	C215.323273,907.844482 223.541870,909.401367 231.855057,913.930481 
	C229.720322,918.140503 227.659225,922.205322 225.431808,926.598083 
	C223.671371,925.661377 222.244690,924.902222 220.460297,924.001831 
z"/>
<path fill="#FCFEFF" opacity="1.000000" stroke="none" 
	d="
M710.089478,927.871948 
	C702.195862,934.576660 700.347229,944.916626 705.374329,952.667847 
	C711.078857,961.463623 719.562317,962.295837 734.173523,955.059448 
	C734.173523,960.793640 734.284668,966.187317 734.068970,971.567932 
	C734.031067,972.513611 732.799438,973.899475 731.822632,974.245911 
	C718.478821,978.978027 706.024536,977.306519 695.695984,967.386902 
	C685.141968,957.250793 682.091125,944.606995 687.112000,930.789734 
	C691.769836,917.971497 701.432190,910.786011 714.994507,908.965942 
	C715.817810,908.855530 716.681091,908.653198 717.476257,908.787292 
	C722.665894,909.661987 728.640808,909.391724 732.702332,912.038208 
	C734.899536,913.469910 733.881226,919.920959 734.198242,924.116455 
	C734.347046,926.086060 734.223694,928.076355 734.223694,931.174744 
	C726.507874,924.796448 718.817139,922.698059 710.089478,927.871948 
z"/>
<path fill="#FCFEFF" opacity="1.000000" stroke="none" 
	d="
M1418.310425,969.706055 
	C1404.891724,958.493530 1401.116455,941.088989 1408.773193,926.790527 
	C1416.572021,912.226868 1432.985718,905.532776 1449.198364,910.010132 
	C1453.108276,911.089905 1454.645630,912.908203 1454.305542,917.000061 
	C1453.941772,921.379822 1454.223633,925.813293 1454.223633,930.578369 
	C1441.197388,923.163574 1432.635498,923.483643 1426.420044,931.213684 
	C1421.076904,937.858765 1421.336914,948.419373 1426.998535,954.714905 
	C1433.418213,961.853271 1442.211060,962.047791 1453.999268,954.728333 
	C1453.999268,961.054016 1454.085327,966.870544 1453.878784,972.676636 
	C1453.855591,973.328491 1452.257324,974.165344 1451.250610,974.504517 
	C1439.617310,978.424255 1428.660522,977.277832 1418.310425,969.706055 
z"/>
<path fill="#FBFDFF" opacity="1.000000" stroke="none" 
	d="
M1481.142822,910.244385 
	C1489.864624,908.619019 1495.535400,911.710205 1499.101318,919.347839 
	C1500.404419,922.138977 1502.591797,924.517334 1504.881226,927.811279 
	C1508.197144,922.938293 1511.337646,918.712830 1514.036987,914.222412 
	C1515.903931,911.116699 1518.225708,909.969360 1521.786011,910.178955 
	C1526.356567,910.447998 1530.955078,910.244324 1536.904785,910.244324 
	C1533.206909,915.509766 1530.718262,920.044067 1527.309937,923.727356 
	C1515.415161,936.582275 1510.533936,951.458252 1513.076416,968.800232 
	C1513.335693,970.568848 1513.111328,972.408325 1513.111328,975.011108 
	C1510.130005,975.011108 1507.542847,975.011169 1504.955811,975.011169 
	C1502.316528,975.011169 1499.677368,975.011108 1496.243774,975.011108 
	C1496.243774,967.352478 1495.892090,960.069519 1496.349487,952.837708 
	C1496.751221,946.488403 1495.010986,941.324097 1491.116455,936.329712 
	C1485.805176,929.518433 1481.079468,922.249756 1476.125610,915.161194 
	C1475.212402,913.854614 1474.408569,912.471802 1472.996460,910.244202 
	C1476.178101,910.244202 1478.428101,910.244202 1481.142822,910.244385 
z"/>
<path fill="#FAFCFE" opacity="1.000000" stroke="none" 
	d="
M1192.324097,941.002197 
	C1192.323364,952.469482 1192.323364,963.437317 1192.323364,974.708008 
	C1186.592041,974.708008 1181.349609,974.708008 1175.632324,974.708008 
	C1175.538330,972.630127 1175.376953,970.677734 1175.373413,968.725098 
	C1175.349854,955.734192 1175.229614,942.741150 1175.437988,929.753601 
	C1175.501709,925.788269 1174.197998,924.311340 1170.283081,924.686157 
	C1167.672852,924.936035 1165.019287,924.733459 1161.691040,924.733459 
	C1161.691040,920.435791 1161.507446,916.645447 1161.819214,912.896301 
	C1161.897705,911.950623 1163.551270,910.386658 1164.496338,910.375183 
	C1178.111572,910.210327 1191.729248,910.262329 1205.700317,910.262329 
	C1205.700317,915.207764 1205.700317,919.597961 1205.700317,924.739380 
	C1202.607056,924.739380 1199.657471,924.861694 1196.722656,924.706299 
	C1193.560547,924.538818 1192.135620,925.706482 1192.291504,929.012878 
	C1192.471802,932.834839 1192.327881,936.672180 1192.324097,941.002197 
z"/>
<path fill="#FAFCFE" opacity="1.000000" stroke="none" 
	d="
M532.323975,945.000488 
	C532.323364,955.136475 532.323364,964.772583 532.323364,974.708618 
	C526.591797,974.708618 521.349182,974.708618 515.361511,974.708618 
	C515.361511,972.449646 515.361633,970.336853 515.361511,968.224060 
	C515.360840,955.399780 515.227844,942.573303 515.437866,929.752441 
	C515.502808,925.785034 514.194580,924.311951 510.281769,924.686218 
	C507.673950,924.935547 505.022980,924.733459 501.691223,924.733459 
	C501.691223,920.434631 501.507721,916.644165 501.819519,912.894958 
	C501.898132,911.949707 503.552124,910.386475 504.497528,910.375000 
	C518.112549,910.210144 531.730103,910.262268 545.700684,910.262268 
	C545.700684,915.208435 545.700684,919.598572 545.700684,924.739441 
	C542.606262,924.739441 539.656738,924.861755 536.721924,924.706116 
	C533.558716,924.538391 532.175842,925.708923 532.287109,929.013123 
	C532.460815,934.170166 532.327698,939.337585 532.323975,945.000488 
z"/>
<path fill="#FBFDFF" opacity="1.000000" stroke="none" 
	d="
M1126.695557,940.999634 
	C1126.695679,944.991882 1126.661743,948.484741 1126.702637,951.976624 
	C1126.823730,962.317749 1125.495605,960.694031 1135.831421,960.842773 
	C1139.275757,960.892334 1142.721436,960.850647 1146.493652,960.850647 
	C1146.493652,965.717957 1146.493652,969.955444 1146.493652,974.603638 
	C1134.503906,974.603638 1122.632324,974.603638 1110.260254,974.603638 
	C1110.131592,973.295593 1109.872681,971.877258 1109.870483,970.458557 
	C1109.843140,951.998779 1109.935303,933.538391 1109.780396,915.079895 
	C1109.750000,911.464966 1110.676758,910.161133 1114.503540,910.154419 
	C1126.696411,910.132996 1126.696289,909.977356 1126.696167,922.039978 
	C1126.696167,928.193237 1126.695923,934.346497 1126.695557,940.999634 
z"/>
<path fill="#63A8EE" opacity="1.000000" stroke="none" 
	d="
M386.000000,832.000366 
	C314.882874,832.000366 244.265732,832.000366 173.324615,832.000366 
	C173.324615,636.923584 173.324615,442.360626 173.324615,247.398453 
	C634.027405,247.398453 1094.688843,247.398453 1555.675171,247.398453 
	C1555.675171,442.076691 1555.675171,636.639648 1555.675171,832.000366 
	C1165.922729,832.000366 776.211365,832.000366 386.000000,832.000366 
M1210.500000,299.004150 
	C1172.036987,299.004150 1133.574097,299.004150 1094.736084,299.004150 
	C1094.736084,453.125549 1094.736084,606.806396 1094.736084,761.001038 
	C1096.682251,761.001038 1098.310303,761.001038 1099.938354,761.001038 
	C1167.917969,761.000427 1235.901001,761.372437 1303.875244,760.766235 
	C1323.605591,760.590271 1343.449463,758.561096 1362.996094,755.704224 
	C1394.175171,751.147217 1420.887695,737.224426 1441.646362,713.089844 
	C1470.137451,679.965271 1480.049438,641.340820 1473.796631,598.557434 
	C1468.331177,561.160461 1448.983276,533.438538 1414.229858,517.262207 
	C1411.298584,515.897766 1408.307251,514.662415 1404.471924,512.986023 
	C1407.904785,511.017151 1410.460815,509.549744 1413.018066,508.084534 
	C1436.028320,494.901031 1451.093140,475.753876 1457.109253,449.699890 
	C1460.441772,435.268372 1460.940186,420.684357 1459.946899,405.999756 
	C1456.946655,361.647675 1428.569214,324.905365 1386.660522,310.229065 
	C1363.709717,302.191803 1340.048462,299.237610 1315.968262,299.067535 
	C1281.147217,298.821564 1246.322876,299.004303 1210.500000,299.004150 
M991.536804,695.951660 
	C942.423218,628.873169 893.364868,561.753967 844.073547,494.806366 
	C840.731812,490.267639 841.246765,488.043152 845.007629,484.278168 
	C904.949951,424.270782 964.731506,364.102783 1024.544312,303.966064 
	C1025.882202,302.621002 1027.156616,301.212921 1029.245361,299.004547 
	C1026.174927,299.004547 1024.387573,299.004547 1022.600159,299.004547 
	C985.607056,299.004517 948.613464,299.086945 911.621277,298.904999 
	C906.741577,298.880981 903.398621,300.263855 900.014160,303.889740 
	C843.618164,364.307220 787.069153,424.581848 730.543091,484.877869 
	C729.558228,485.928345 728.435242,486.849304 726.342773,488.789307 
	C726.342773,424.892181 726.342773,362.224243 726.342773,299.358032 
	C694.350891,299.358032 663.140930,299.358032 631.858398,299.358032 
	C631.858398,453.369202 631.858398,607.026245 631.858398,760.691711 
	C663.453308,760.691711 694.548950,760.691711 726.313660,760.691711 
	C726.313660,758.278198 726.313721,756.166138 726.313721,754.054016 
	C726.313782,706.729431 726.278625,659.404785 726.408752,612.080566 
	C726.415894,609.475769 727.011230,606.133545 728.659973,604.388794 
	C742.277832,589.978027 756.205139,575.859619 770.058044,561.671387 
	C770.731079,560.982117 771.584534,560.468933 772.677734,559.623230 
	C774.072388,561.519714 775.367981,563.221375 776.601135,564.967224 
	C821.681763,628.787231 866.783630,692.592163 911.756165,756.488281 
	C914.139648,759.874634 916.595154,761.117310 920.726685,761.098816 
	C958.052368,760.931213 995.379028,761.000732 1032.705444,761.000732 
	C1034.464600,761.000732 1036.223633,761.000732 1039.145752,761.000732 
	C1022.966980,738.895386 1007.463257,717.712463 991.536804,695.951660 
M489.500000,299.005493 
	C472.411652,299.005493 455.323273,299.005493 437.841125,299.005493 
	C437.841125,302.128510 437.841125,304.441101 437.841125,306.753693 
	C437.841095,410.568359 437.897400,514.383118 437.759186,618.197571 
	C437.744385,629.332947 437.092590,640.521545 435.871277,651.590027 
	C433.368256,674.274597 422.215027,688.140381 402.433014,691.636230 
	C392.599274,693.374023 382.159058,693.354431 372.190094,692.288452 
	C353.970306,690.340332 342.284668,679.864685 337.276154,661.980286 
	C332.342499,644.363403 330.466644,626.360168 329.860718,608.179993 
	C329.618866,600.922729 329.820984,593.650757 329.820984,586.364502 
	C298.410767,586.364502 268.392456,586.364502 239.017578,586.364502 
	C239.017578,598.655823 238.435791,610.497009 239.130798,622.262695 
	C240.941238,652.911865 246.937592,682.598755 260.499237,710.498047 
	C271.368896,732.859436 287.607941,749.351074 310.696838,758.964233 
	C328.424988,766.345398 346.972107,769.922852 366.016205,771.300720 
	C393.087952,773.259460 419.976166,772.601562 446.263245,764.903259 
	C478.953644,755.329651 503.790924,736.056335 518.589661,704.978149 
	C529.528625,682.005737 533.789856,657.335693 533.873047,632.184265 
	C534.234619,522.871948 534.119019,413.558105 534.160706,304.244812 
	C534.161316,302.643219 533.954590,301.041565 533.814819,299.005493 
	C519.093933,299.005493 504.796967,299.005493 489.500000,299.005493 
z"/>
<path fill="#63A8EE" opacity="1.000000" stroke="none" 
	d="
M795.778259,924.996765 
	C806.547607,926.753662 813.004761,933.689880 812.857178,942.898926 
	C812.720032,951.460388 806.128601,958.953552 797.726929,960.099304 
	C786.585266,961.618713 777.505798,954.738892 776.623840,944.108582 
	C775.731506,933.352966 783.581116,925.336304 795.778259,924.996765 
z"/>
<path fill="#63A8EE" opacity="1.000000" stroke="none" 
	d="
M386.029297,947.701660 
	C381.764313,957.740601 373.617737,962.105896 363.973145,959.855225 
	C355.811432,957.950562 350.079498,950.219299 350.579834,941.790222 
	C351.212830,931.125427 360.389404,923.687439 371.192657,925.082581 
	C381.966156,926.473999 388.464050,936.149353 386.029297,947.701660 
z"/>
<path fill="#63A8EE" opacity="1.000000" stroke="none" 
	d="
M458.876343,926.139893 
	C461.466858,929.405762 462.059143,933.109314 459.378845,935.462585 
	C457.043762,937.512756 453.319336,938.076965 450.113159,938.943970 
	C449.573883,939.089844 448.097870,937.555115 447.850769,936.592529 
	C447.450195,935.032410 447.571564,933.290649 447.720001,931.647949 
	C447.965149,928.935486 448.407410,926.240845 448.766632,923.538696 
	C452.051483,924.308838 455.336334,925.079041 458.876343,926.139893 
z"/>
<path fill="#63A8EE" opacity="1.000000" stroke="none" 
	d="
M1257.247803,937.754333 
	C1258.790039,942.168213 1260.205078,946.220703 1261.773926,950.713501 
	C1256.713867,950.713501 1252.288452,950.713501 1247.039795,950.713501 
	C1249.397095,943.910950 1251.673340,937.342407 1254.332397,929.669556 
	C1255.550171,933.042908 1256.335327,935.217896 1257.247803,937.754333 
z"/>
<path fill="#63A8EE" opacity="1.000000" stroke="none" 
	d="
M277.694641,933.920898 
	C277.694214,930.511780 277.694214,927.581238 277.694214,924.426941 
	C282.884430,923.819275 287.941681,922.810181 290.738251,927.450745 
	C292.081024,929.679016 292.168030,933.863159 290.954681,936.184631 
	C288.382538,941.105774 283.181152,940.017822 278.036682,939.740967 
	C277.918182,937.887939 277.806610,936.143677 277.694641,933.920898 
z"/>
<path fill="#FEFFFF" opacity="1.000000" stroke="none" 
	d="
M1211.000000,299.004150 
	C1246.322876,299.004303 1281.147217,298.821564 1315.968262,299.067535 
	C1340.048462,299.237610 1363.709717,302.191803 1386.660522,310.229065 
	C1428.569214,324.905365 1456.946655,361.647675 1459.946899,405.999756 
	C1460.940186,420.684357 1460.441772,435.268372 1457.109253,449.699890 
	C1451.093140,475.753876 1436.028320,494.901031 1413.018066,508.084534 
	C1410.460815,509.549744 1407.904785,511.017151 1404.471924,512.986023 
	C1408.307251,514.662415 1411.298584,515.897766 1414.229858,517.262207 
	C1448.983276,533.438538 1468.331177,561.160461 1473.796631,598.557434 
	C1480.049438,641.340820 1470.137451,679.965271 1441.646362,713.089844 
	C1420.887695,737.224426 1394.175171,751.147217 1362.996094,755.704224 
	C1343.449463,758.561096 1323.605591,760.590271 1303.875244,760.766235 
	C1235.901001,761.372437 1167.917969,761.000427 1099.938354,761.001038 
	C1098.310303,761.001038 1096.682251,761.001038 1094.736084,761.001038 
	C1094.736084,606.806396 1094.736084,453.125549 1094.736084,299.004150 
	C1133.574097,299.004150 1172.036987,299.004150 1211.000000,299.004150 
M1186.710815,606.500000 
	C1186.710938,629.150818 1186.707642,651.801697 1186.713135,674.452515 
	C1186.714722,680.849365 1186.726440,680.857361 1193.330688,680.857849 
	C1227.973145,680.860413 1262.616577,680.991028 1297.257568,680.771545 
	C1306.720459,680.711609 1316.256470,680.163757 1325.619751,678.848572 
	C1347.008057,675.844543 1364.334839,666.408691 1372.727783,645.246582 
	C1378.970459,629.506470 1379.910156,613.128235 1375.660034,596.704041 
	C1372.224976,583.429688 1363.968872,573.777832 1351.887695,567.315796 
	C1339.524292,560.702942 1326.046875,558.283264 1312.358765,558.127625 
	C1272.059082,557.669312 1231.752197,557.847351 1191.448975,557.639893 
	C1187.684814,557.620544 1186.600586,558.869995 1186.643799,562.530823 
	C1186.813110,576.852112 1186.711182,591.176697 1186.710815,606.500000 
M1333.548584,383.860992 
	C1323.004028,382.495026 1312.477661,380.135986 1301.911743,379.943207 
	C1265.446777,379.277832 1228.967285,379.445648 1192.495483,379.073059 
	C1187.895874,379.026093 1186.584595,380.331848 1186.613525,384.925385 
	C1186.803223,415.073090 1186.705811,445.222534 1186.725464,475.371429 
	C1186.726685,477.129578 1186.932373,478.887573 1187.050903,480.772888 
	C1188.708862,480.896057 1189.850342,481.054993 1190.991699,481.054901 
	C1227.803101,481.052002 1264.614502,481.059875 1301.425903,481.003357 
	C1313.830566,480.984314 1325.996826,479.313629 1337.713379,475.052673 
	C1350.614502,470.360931 1361.163330,463.068634 1365.415649,449.162506 
	C1369.102905,437.104218 1369.385620,424.863831 1366.225586,412.692078 
	C1361.950073,396.223633 1350.516235,387.434723 1333.548584,383.860992 
z"/>
<path fill="#FEFFFF" opacity="1.000000" stroke="none" 
	d="
M991.748169,696.240601 
	C1007.463257,717.712463 1022.966980,738.895386 1039.145752,761.000732 
	C1036.223633,761.000732 1034.464600,761.000732 1032.705444,761.000732 
	C995.379028,761.000732 958.052368,760.931213 920.726685,761.098816 
	C916.595154,761.117310 914.139648,759.874634 911.756165,756.488281 
	C866.783630,692.592163 821.681763,628.787231 776.601135,564.967224 
	C775.367981,563.221375 774.072388,561.519714 772.677734,559.623230 
	C771.584534,560.468933 770.731079,560.982117 770.058044,561.671387 
	C756.205139,575.859619 742.277832,589.978027 728.659973,604.388794 
	C727.011230,606.133545 726.415894,609.475769 726.408752,612.080566 
	C726.278625,659.404785 726.313782,706.729431 726.313721,754.054016 
	C726.313721,756.166138 726.313660,758.278198 726.313660,760.691711 
	C694.548950,760.691711 663.453308,760.691711 631.858398,760.691711 
	C631.858398,607.026245 631.858398,453.369202 631.858398,299.358032 
	C663.140930,299.358032 694.350891,299.358032 726.342773,299.358032 
	C726.342773,362.224243 726.342773,424.892181 726.342773,488.789307 
	C728.435242,486.849304 729.558228,485.928345 730.543091,484.877869 
	C787.069153,424.581848 843.618164,364.307220 900.014160,303.889740 
	C903.398621,300.263855 906.741577,298.880981 911.621277,298.904999 
	C948.613464,299.086945 985.607056,299.004517 1022.600159,299.004547 
	C1024.387573,299.004547 1026.174927,299.004547 1029.245361,299.004547 
	C1027.156616,301.212921 1025.882202,302.621002 1024.544312,303.966064 
	C964.731506,364.102783 904.949951,424.270782 845.007629,484.278168 
	C841.246765,488.043152 840.731812,490.267639 844.073547,494.806366 
	C893.364868,561.753967 942.423218,628.873169 991.748169,696.240601 
z"/>
<path fill="#FFFFFF" opacity="1.000000" stroke="none" 
	d="
M490.000000,299.005493 
	C504.796967,299.005493 519.093933,299.005493 533.814819,299.005493 
	C533.954590,301.041565 534.161316,302.643219 534.160706,304.244812 
	C534.119019,413.558105 534.234619,522.871948 533.873047,632.184265 
	C533.789856,657.335693 529.528625,682.005737 518.589661,704.978149 
	C503.790924,736.056335 478.953644,755.329651 446.263245,764.903259 
	C419.976166,772.601562 393.087952,773.259460 366.016205,771.300720 
	C346.972107,769.922852 328.424988,766.345398 310.696838,758.964233 
	C287.607941,749.351074 271.368896,732.859436 260.499237,710.498047 
	C246.937592,682.598755 240.941238,652.911865 239.130798,622.262695 
	C238.435791,610.497009 239.017578,598.655823 239.017578,586.364502 
	C268.392456,586.364502 298.410767,586.364502 329.820984,586.364502 
	C329.820984,593.650757 329.618866,600.922729 329.860718,608.179993 
	C330.466644,626.360168 332.342499,644.363403 337.276154,661.980286 
	C342.284668,679.864685 353.970306,690.340332 372.190094,692.288452 
	C382.159058,693.354431 392.599274,693.374023 402.433014,691.636230 
	C422.215027,688.140381 433.368256,674.274597 435.871277,651.590027 
	C437.092590,640.521545 437.744385,629.332947 437.759186,618.197571 
	C437.897400,514.383118 437.841095,410.568359 437.841125,306.753693 
	C437.841125,304.441101 437.841125,302.128510 437.841125,299.005493 
	C455.323273,299.005493 472.411652,299.005493 490.000000,299.005493 
z"/>
<path fill="#63A8EE" opacity="1.000000" stroke="none" 
	d="
M1186.710449,606.000000 
	C1186.711182,591.176697 1186.813110,576.852112 1186.643799,562.530823 
	C1186.600586,558.869995 1187.684814,557.620544 1191.448975,557.639893 
	C1231.752197,557.847351 1272.059082,557.669312 1312.358765,558.127625 
	C1326.046875,558.283264 1339.524292,560.702942 1351.887695,567.315796 
	C1363.968872,573.777832 1372.224976,583.429688 1375.660034,596.704041 
	C1379.910156,613.128235 1378.970459,629.506470 1372.727783,645.246582 
	C1364.334839,666.408691 1347.008057,675.844543 1325.619751,678.848572 
	C1316.256470,680.163757 1306.720459,680.711609 1297.257568,680.771545 
	C1262.616577,680.991028 1227.973145,680.860413 1193.330688,680.857849 
	C1186.726440,680.857361 1186.714722,680.849365 1186.713135,674.452515 
	C1186.707642,651.801697 1186.710938,629.150818 1186.710449,606.000000 
z"/>
<path fill="#63A8EE" opacity="1.000000" stroke="none" 
	d="
M1333.955078,383.946014 
	C1350.516235,387.434723 1361.950073,396.223633 1366.225586,412.692078 
	C1369.385620,424.863831 1369.102905,437.104218 1365.415649,449.162506 
	C1361.163330,463.068634 1350.614502,470.360931 1337.713379,475.052673 
	C1325.996826,479.313629 1313.830566,480.984314 1301.425903,481.003357 
	C1264.614502,481.059875 1227.803101,481.052002 1190.991699,481.054901 
	C1189.850342,481.054993 1188.708862,480.896057 1187.050903,480.772888 
	C1186.932373,478.887573 1186.726685,477.129578 1186.725464,475.371429 
	C1186.705811,445.222534 1186.803223,415.073090 1186.613525,384.925385 
	C1186.584595,380.331848 1187.895874,379.026093 1192.495483,379.073059 
	C1228.967285,379.445648 1265.446777,379.277832 1301.911743,379.943207 
	C1312.477661,380.135986 1323.004028,382.495026 1333.955078,383.946014 
z"/>
</svg>